<svg width="120" height="120" viewBox="0 0 120 120" fill="none" xmlns="http://www.w3.org/2000/svg">
<circle cx="60" cy="60" r="60" fill="#FCBC00"/>
<path d="M76.1965 58.7519C82.1988 62.1439 85.2 67.2639 85.2 74.1119C85.2 79.8079 83.1448 84.4799 79.0345 88.1279C74.9243 91.7759 69.8679 93.5999 63.8656 93.5999H34.8V26.3999H61.8105C67.6823 26.3999 72.6081 28.1919 76.5879 31.7759C80.633 35.2959 82.6555 39.8079 82.6555 45.3119C82.6555 50.8799 80.5025 55.3599 76.1965 58.7519ZM61.8105 38.7839H48.3052V53.5679H61.8105C63.8982 53.5679 65.6272 52.8639 66.9973 51.4559C68.4326 50.0479 69.1503 48.2879 69.1503 46.1759C69.1503 44.0639 68.4652 42.3039 67.0951 40.8959C65.725 39.4879 63.9635 38.7839 61.8105 38.7839ZM63.8656 81.2159C66.1491 81.2159 68.0412 80.4799 69.5417 79.0079C71.0423 77.4719 71.7926 75.5519 71.7926 73.2479C71.7926 71.0079 71.0423 69.1519 69.5417 67.6799C68.0412 66.1439 66.1491 65.3759 63.8656 65.3759H48.3052V81.2159H63.8656Z" fill="#2B2A29"/>
<path d="M60.343 26.3999C68.4412 26.3999 72.784 28.0156 76.6985 31.7999C81.2003 36.1519 82.6927 39.2639 82.6927 45.5999C82.6927 51.9359 80.1481 55.4716 76.2704 58.7999C71.3772 62.9999 66.9325 65.5199 60.343 65.5199H48.3057V93.5999H34.8005V26.3999H60.343ZM60.4898 53.5199C63.3605 53.5199 66.0465 52.7864 67.8296 50.3999C69.8517 47.6936 69.24 44.1062 67.2179 41.3999C65.4348 39.0134 64.0293 38.7839 60.343 38.7839H48.3057V53.5199H60.4898Z" fill="white"/>
</svg>
